<?xml version="1.0" standalone="no"?>
<!DOCTYPE svg PUBLIC "-//W3C//DTD SVG 20010904//EN"
 "http://www.w3.org/TR/2001/REC-SVG-20010904/DTD/svg10.dtd">
<svg version="1.0" xmlns="http://www.w3.org/2000/svg"
 width="74.000000pt" height="74.000000pt" viewBox="0 0 74.000000 74.000000"
 preserveAspectRatio="xMidYMid meet">
<metadata>
Created by potrace 1.14, written by Peter Selinger 2001-2017
</metadata>
<g transform="translate(0.000000,74.000000) scale(0.100000,-0.100000)"
fill="#000000" stroke="none">
<path d="M252 669 c-18 -4 -34 -8 -35 -10 -2 -2 -16 -24 -31 -49 -16 -25 -38
-58 -48 -73 -20 -28 -20 -29 0 -50 22 -25 35 -66 21 -68 -5 -1 -13 -3 -19 -4
-5 -1 -14 -3 -20 -4 -5 0 -10 -7 -10 -15 0 -7 -6 -26 -14 -41 -9 -17 -11 -35
-7 -49 5 -11 5 -33 0 -48 -5 -21 -2 -34 13 -53 10 -14 26 -25 34 -25 16 0 19
-16 4 -25 -16 -10 -12 -24 13 -49 29 -29 81 -26 139 6 37 21 38 21 52 3 34
-47 209 2 290 81 30 30 34 38 26 59 -7 19 -6 25 4 25 10 0 12 10 6 42 -6 30
-4 45 6 55 8 8 14 23 14 34 0 27 -44 69 -72 69 -13 0 -45 12 -73 25 -27 14
-57 25 -66 25 -23 0 -30 23 -19 60 8 27 6 32 -13 40 -12 4 -40 16 -62 25 -46
20 -86 24 -133 14z"/>
</g>
</svg>
